<svg width="340" height="340" viewBox="0 0 340 340" version="2.0" xmlns="http://www.w3.org/2000/svg" xmlns:xlink="http://www.w3.org/1999/xlink" xmlns:figma="http://www.figma.com/figma/ns">
<title>logo</title>
<desc>Created using Figma (9000)</desc>
<g id="Canvas" transform="translate(37 457)" figma:type="canvas">
<g id="Group" style="mix-blend-mode:normal;" figma:type="group">
<g id="Vector" style="mix-blend-mode:normal;" figma:type="vector">
<use xlink:href="#path0_stroke" transform="translate(-32 -420)" fill="#9F9F9F" style="mix-blend-mode:normal;"/>
</g>
<g id="Vector" style="mix-blend-mode:normal;" figma:type="vector">
<use xlink:href="#path0_stroke" transform="matrix(-1 0 0 1 297.523 -420)" fill="#9F9F9F" style="mix-blend-mode:normal;"/>
</g>
</g>
<g id="THINODIUM" style="mix-blend-mode:normal;" figma:type="text">
<use xlink:href="#path1_fill" transform="translate(77 -206.032)" style="mix-blend-mode:normal;"/>
</g>
<g id="Th" style="mix-blend-mode:normal;" figma:type="text">
<use xlink:href="#path2_fill" transform="translate(76 -299)" style="mix-blend-mode:normal;"/>
</g>
<g id="400" style="mix-blend-mode:normal;" figma:type="text">
<use xlink:href="#path3_fill" transform="translate(118 -160)" style="mix-blend-mode:normal;"/>
</g>
<g id="&#226;&#136;&#158;" style="mix-blend-mode:normal;" figma:type="text">
<use xlink:href="#path4_fill" transform="translate(118 -348)" style="mix-blend-mode:normal;"/>
</g>
<g id="Ellipse" style="mix-blend-mode:normal;" figma:type="ellipse">
<use xlink:href="#path5_fill" transform="translate(124 -408)" fill="#DADADA" style="mix-blend-mode:normal;"/>
</g>
<g id="Ellipse" style="mix-blend-mode:normal;" figma:type="ellipse">
<use xlink:href="#path5_fill" transform="translate(133 -428)" fill="#DADADA" style="mix-blend-mode:normal;"/>
</g>
<g id="Ellipse" style="mix-blend-mode:normal;" figma:type="ellipse">
<use xlink:href="#path5_fill" transform="translate(124 -452)" fill="#DADADA" style="mix-blend-mode:normal;"/>
</g>
</g>
<defs>
<path id="path0_stroke" d="
M 116.761 66
L 118.029 66.8015
L 118.261 66.4343
L 118.261 66
L 116.761 66
Z
M 118.261 0
L 118.261 -1.5
L 115.261 -1.5
L 115.261 0
L 118.261 0
Z
M 177.761 299.468
L 179.261 299.468
L 179.261 296.468
L 177.761 296.468
L 177.761 299.468
Z
M 118.261 66
L 118.261 0
L 115.261 0
L 115.261 66
L 118.261 66
Z
M 15.7615 299.468
L 177.761 299.468
L 177.761 296.468
L 15.7615 296.468
L 15.7615 299.468
Z
M 15.7615 296.468
C 9.35086 296.468 5.56388 294.402 3.52854 290.968
C 1.41234 287.398 0.948847 281.975 2.15223 274.767
C 4.55177 260.394 13.3618 240.12 25.7655 216.814
C 50.5387 170.262 89.259 112.317 118.029 66.8015
L 115.494 65.1985
C 86.7437 110.683 47.9641 168.722 23.1173 215.404
C 10.7111 238.715 1.68111 259.371 -0.806818 274.273
C -2.04717 281.702 -1.71628 288.003 0.947848 292.498
C 3.69284 297.129 8.67211 299.468 15.7615 299.468
L 15.7615 296.468
Z"/>
<path id="path1_fill" d="
M 5.81836 19.2393
L 4.19238 19.2393
L 4.19238 7.81348
L 0.175781 7.81348
L 0.175781 6.38965
L 9.80859 6.38965
L 9.80859 7.81348
L 5.81836 7.81348
L 5.81836 19.2393
Z
M 21.5859 19.2393
L 19.9688 19.2393
L 19.9688 13.2451
L 13.377 13.2451
L 13.377 19.2393
L 11.7598 19.2393
L 11.7598 6.38965
L 13.377 6.38965
L 13.377 11.8213
L 19.9688 11.8213
L 19.9688 6.38965
L 21.5859 6.38965
L 21.5859 19.2393
Z
M 28.7139 19.2393
L 24.0732 19.2393
L 24.0732 18.3076
L 25.585 17.9648
L 25.585 7.68164
L 24.0732 7.32129
L 24.0732 6.38965
L 28.7139 6.38965
L 28.7139 7.32129
L 27.2021 7.68164
L 27.2021 17.9648
L 28.7139 18.3076
L 28.7139 19.2393
Z
M 41.3877 19.2393
L 39.498 19.2393
L 32.6162 8.56934
L 32.5459 8.56934
L 32.5898 9.28125
C 32.6602 10.3477 32.6953 11.2734 32.6953 12.0586
L 32.6953 19.2393
L 31.2012 19.2393
L 31.2012 6.38965
L 33.0732 6.38965
L 33.4688 7.01367
L 37.6875 13.5352
L 39.9287 17.0244
L 39.999 17.0244
C 39.9873 16.8838 39.9639 16.3828 39.9287 15.5215
C 39.8936 14.6543 39.876 14.0273 39.876 13.6406
L 39.876 6.38965
L 41.3877 6.38965
L 41.3877 19.2393
Z
M 56.0918 12.7969
C 56.0918 14.8535 55.5703 16.4707 54.5273 17.6484
C 53.4902 18.8262 52.0371 19.415 50.168 19.415
C 48.2754 19.415 46.8105 18.8379 45.7734 17.6836
C 44.7422 16.5234 44.2266 14.8887 44.2266 12.7793
C 44.2266 10.6875 44.7393 9.06738 45.7646 7.91895
C 46.7959 6.76465 48.2695 6.1875 50.1855 6.1875
C 52.0488 6.1875 53.499 6.77344 54.5361 7.94531
C 55.5732 9.11133 56.0918 10.7285 56.0918 12.7969
Z
M 45.9316 12.7969
C 45.9316 14.4961 46.292 15.791 47.0127 16.6816
C 47.7334 17.5723 48.7852 18.0176 50.168 18.0176
C 51.5449 18.0176 52.5908 17.5781 53.3057 16.6992
C 54.0205 15.8203 54.3779 14.5195 54.3779 12.7969
C 54.3779 11.0801 54.0234 9.78809 53.3145 8.9209
C 52.6055 8.04785 51.5625 7.61133 50.1855 7.61133
C 48.791 7.61133 47.7334 8.05371 47.0127 8.93848
C 46.292 9.81738 45.9316 11.1035 45.9316 12.7969
Z
M 69.2227 12.6914
C 69.2227 14.8125 68.6426 16.4355 67.4824 17.5605
C 66.3281 18.6797 64.6699 19.2393 62.5078 19.2393
L 58.9307 19.2393
L 58.9307 6.38965
L 62.8857 6.38965
C 64.8838 6.38965 66.4395 6.94043 67.5527 8.04199
C 68.666 9.1377 69.2227 10.6875 69.2227 12.6914
Z
M 67.5176 12.7441
C 67.5176 11.1094 67.1133 9.87305 66.3047 9.03516
C 65.502 8.19141 64.2861 7.76953 62.6572 7.76953
L 60.5479 7.76953
L 60.5479 17.8506
L 62.2969 17.8506
C 65.7773 17.8506 67.5176 16.1484 67.5176 12.7441
Z
M 75.6826 19.2393
L 71.042 19.2393
L 71.042 18.3076
L 72.5537 17.9648
L 72.5537 7.68164
L 71.042 7.32129
L 71.042 6.38965
L 75.6826 6.38965
L 75.6826 7.32129
L 74.1709 7.68164
L 74.1709 17.9648
L 75.6826 18.3076
L 75.6826 19.2393
Z
M 87.9434 6.38965
L 87.9434 14.7041
C 87.9434 16.1689 87.501 17.3203 86.6162 18.1582
C 85.7314 18.9961 84.5039 19.415 82.9336 19.415
C 81.3809 19.415 80.1768 18.9932 79.3213 18.1494
C 78.4658 17.2998 78.0381 16.1396 78.0381 14.6689
L 78.0381 6.38965
L 79.6641 6.38965
L 79.6641 14.7217
C 79.6641 15.7705 79.9424 16.582 80.499 17.1562
C 81.0615 17.7305 81.9053 18.0176 83.0303 18.0176
C 84.0908 18.0176 84.9053 17.7334 85.4736 17.165
C 86.0479 16.5967 86.335 15.7764 86.335 14.7041
L 86.335 6.38965
L 87.9434 6.38965
Z
M 96.9961 19.2393
L 92.7598 7.97168
L 92.6895 7.97168
C 92.7773 8.90918 92.8213 10.0664 92.8213 11.4434
L 92.8213 19.2393
L 91.3271 19.2393
L 91.3271 6.38965
L 93.7178 6.38965
L 97.6816 16.9189
L 97.752 16.9189
L 101.786 6.38965
L 104.159 6.38965
L 104.159 19.2393
L 102.56 19.2393
L 102.56 11.3379
C 102.56 10.459 102.601 9.34277 102.683 7.98926
L 102.612 7.98926
L 98.3232 19.2393
L 96.9961 19.2393
Z"/>
<path id="path2_fill" d="
M 24.8906 86.9062
L 24.8906 26.2969
L 2.25 26.2969
L 2.25 18.1875
L 56.7188 18.1875
L 56.7188 26.2969
L 33.9844 26.2969
L 33.9844 86.9062
L 24.8906 86.9062
Z
M 64.9688 86.9062
L 64.9688 18.1875
L 73.4062 18.1875
L 73.4062 42.8438
C 77.3438 38.2812 82.3125 36 88.3125 36
C 92 36 95.2031 36.7344 97.9219 38.2031
C 100.641 39.6406 102.578 41.6406 103.734 44.2031
C 104.922 46.7656 105.516 50.4844 105.516 55.3594
L 105.516 86.9062
L 97.0781 86.9062
L 97.0781 55.3594
C 97.0781 51.1406 96.1562 48.0781 94.3125 46.1719
C 92.5 44.2344 89.9219 43.2656 86.5781 43.2656
C 84.0781 43.2656 81.7188 43.9219 79.5 45.2344
C 77.3125 46.5156 75.75 48.2656 74.8125 50.4844
C 73.875 52.7031 73.4062 55.7656 73.4062 59.6719
L 73.4062 86.9062
L 64.9688 86.9062
Z"/>
<path id="path3_fill" d="
M 9.55371 16.3564
L 7.68164 16.3564
L 7.68164 19.2393
L 6.13477 19.2393
L 6.13477 16.3564
L 0.202148 16.3564
L 0.202148 14.959
L 6.0293 6.31934
L 7.68164 6.31934
L 7.68164 14.8975
L 9.55371 14.8975
L 9.55371 16.3564
Z
M 6.13477 14.8975
L 6.13477 11.7686
C 6.13477 11.4404 6.1377 11.0977 6.14355 10.7402
C 6.15527 10.377 6.16699 10.0254 6.17871 9.68555
C 6.19043 9.33984 6.20215 9.01758 6.21387 8.71875
C 6.23145 8.41992 6.24316 8.1709 6.24902 7.97168
L 6.16992 7.97168
C 6.12891 8.08887 6.07617 8.2207 6.01172 8.36719
C 5.95312 8.50781 5.88574 8.65137 5.80957 8.79785
C 5.73926 8.93848 5.66602 9.07617 5.58984 9.21094
C 5.51367 9.3457 5.44336 9.45996 5.37891 9.55371
L 1.7666 14.8975
L 6.13477 14.8975
Z
M 18.9844 12.7969
C 18.9844 13.834 18.9082 14.7627 18.7559 15.583
C 18.6094 16.4033 18.3691 17.0977 18.0352 17.666
C 17.707 18.2344 17.2822 18.668 16.7607 18.9668
C 16.2393 19.2656 15.6064 19.415 14.8623 19.415
C 14.1709 19.415 13.5674 19.2656 13.0518 18.9668
C 12.542 18.668 12.1172 18.2344 11.7773 17.666
C 11.4434 17.0977 11.1914 16.4033 11.0215 15.583
C 10.8574 14.7627 10.7754 13.834 10.7754 12.7969
C 10.7754 11.7598 10.8486 10.8311 10.9951 10.0107
C 11.1475 9.19043 11.3848 8.49902 11.707 7.93652
C 12.0352 7.36816 12.457 6.93457 12.9727 6.63574
C 13.4941 6.33691 14.124 6.1875 14.8623 6.1875
C 15.5596 6.1875 16.166 6.33691 16.6816 6.63574
C 17.1973 6.92871 17.625 7.35938 17.9648 7.92773
C 18.3047 8.49023 18.5596 9.18164 18.7295 10.002
C 18.8994 10.8223 18.9844 11.7539 18.9844 12.7969
Z
M 12.4014 12.7969
C 12.4014 13.6758 12.4453 14.4434 12.5332 15.0996
C 12.6211 15.7559 12.7617 16.3037 12.9551 16.7432
C 13.1484 17.1768 13.4004 17.5049 13.7109 17.7275
C 14.0273 17.9443 14.4111 18.0527 14.8623 18.0527
C 15.3135 18.0527 15.6973 17.9443 16.0137 17.7275
C 16.3301 17.5107 16.5879 17.1855 16.7871 16.752
C 16.9922 16.3184 17.1387 15.7734 17.2266 15.1172
C 17.3203 14.4551 17.3672 13.6816 17.3672 12.7969
C 17.3672 11.918 17.3203 11.1504 17.2266 10.4941
C 17.1387 9.83789 16.9922 9.29297 16.7871 8.85938
C 16.5879 8.42578 16.3301 8.10059 16.0137 7.88379
C 15.6973 7.66699 15.3135 7.55859 14.8623 7.55859
C 14.4111 7.55859 14.0273 7.66699 13.7109 7.88379
C 13.4004 8.10059 13.1484 8.42578 12.9551 8.85938
C 12.7617 9.29297 12.6211 9.83789 12.5332 10.4941
C 12.4453 11.1504 12.4014 11.918 12.4014 12.7969
Z
M 28.8984 12.7969
C 28.8984 13.834 28.8223 14.7627 28.6699 15.583
C 28.5234 16.4033 28.2832 17.0977 27.9492 17.666
C 27.6211 18.2344 27.1963 18.668 26.6748 18.9668
C 26.1533 19.2656 25.5205 19.415 24.7764 19.415
C 24.085 19.415 23.4814 19.2656 22.9658 18.9668
C 22.4561 18.668 22.0312 18.2344 21.6914 17.666
C 21.3574 17.0977 21.1055 16.4033 20.9355 15.583
C 20.7715 14.7627 20.6895 13.834 20.6895 12.7969
C 20.6895 11.7598 20.7627 10.8311 20.9092 10.0107
C 21.0615 9.19043 21.2988 8.49902 21.6211 7.93652
C 21.9492 7.36816 22.3711 6.93457 22.8867 6.63574
C 23.4082 6.33691 24.0381 6.1875 24.7764 6.1875
C 25.4736 6.1875 26.0801 6.33691 26.5957 6.63574
C 27.1113 6.92871 27.5391 7.35938 27.8789 7.92773
C 28.2188 8.49023 28.4736 9.18164 28.6436 10.002
C 28.8135 10.8223 28.8984 11.7539 28.8984 12.7969
Z
M 22.3154 12.7969
C 22.3154 13.6758 22.3594 14.4434 22.4473 15.0996
C 22.5352 15.7559 22.6758 16.3037 22.8691 16.7432
C 23.0625 17.1768 23.3145 17.5049 23.625 17.7275
C 23.9414 17.9443 24.3252 18.0527 24.7764 18.0527
C 25.2275 18.0527 25.6113 17.9443 25.9277 17.7275
C 26.2441 17.5107 26.502 17.1855 26.7012 16.752
C 26.9062 16.3184 27.0527 15.7734 27.1406 15.1172
C 27.2344 14.4551 27.2812 13.6816 27.2812 12.7969
C 27.2812 11.918 27.2344 11.1504 27.1406 10.4941
C 27.0527 9.83789 26.9062 9.29297 26.7012 8.85938
C 26.502 8.42578 26.2441 8.10059 25.9277 7.88379
C 25.6113 7.66699 25.2275 7.55859 24.7764 7.55859
C 24.3252 7.55859 23.9414 7.66699 23.625 7.88379
C 23.3145 8.10059 23.0625 8.42578 22.8691 8.85938
C 22.6758 9.29297 22.5352 9.83789 22.4473 10.4941
C 22.3594 11.1504 22.3154 11.918 22.3154 12.7969
Z"/>
<path id="path4_fill" d="
M 25.8789 28.7109
C 25.8789 30.4557 25.332 31.9271 24.2383 33.125
C 23.1445 34.3229 21.7578 34.9219 20.0781 34.9219
C 17.6693 34.9219 15.6576 33.5091 14.043 30.6836
C 12.4154 33.444 10.4688 34.8242 8.20312 34.8242
C 6.43229 34.8242 5.00651 34.2513 3.92578 33.1055
C 2.85807 31.9596 2.32422 30.4688 2.32422 28.6328
C 2.32422 26.849 2.87109 25.3776 3.96484 24.2188
C 5.07161 23.0599 6.48438 22.4805 8.20312 22.4805
C 10.5469 22.4805 12.5065 23.8802 14.082 26.6797
C 15.6966 23.9323 17.6953 22.5586 20.0781 22.5586
C 21.7969 22.5586 23.1901 23.125 24.2578 24.2578
C 25.3385 25.3906 25.8789 26.875 25.8789 28.7109
Z
M 8.35938 32.2266
C 9.17969 32.2266 9.94141 31.9466 10.6445 31.3867
C 11.3477 30.8138 12.0378 29.8958 12.7148 28.6328
C 12.0768 27.4089 11.4062 26.5039 10.7031 25.918
C 10.013 25.332 9.21875 25.0391 8.32031 25.0391
C 7.31771 25.0391 6.50391 25.3841 5.87891 26.0742
C 5.26693 26.7513 4.96094 27.6172 4.96094 28.6719
C 4.96094 29.7266 5.26693 30.5859 5.87891 31.25
C 6.49089 31.901 7.31771 32.2266 8.35938 32.2266
Z
M 19.8438 25.1172
C 19.0234 25.1172 18.2617 25.4102 17.5586 25.9961
C 16.8685 26.569 16.1784 27.474 15.4883 28.7109
C 16.1263 29.9349 16.7969 30.8398 17.5 31.4258
C 18.2031 32.0117 18.9974 32.3047 19.8828 32.3047
C 20.8724 32.3047 21.6797 31.9661 22.3047 31.2891
C 22.9297 30.612 23.2422 29.7526 23.2422 28.7109
C 23.2422 27.6953 22.9297 26.8424 22.3047 26.1523
C 21.6927 25.4622 20.8724 25.1172 19.8438 25.1172
Z"/>
<path id="path5_fill" d="
M 17 8
C 17 12.4183 13.1944 16 8.5 16
C 3.80558 16 0 12.4183 0 8
C 0 3.58172 3.80558 0 8.5 0
C 13.1944 0 17 3.58172 17 8
Z"/>
</defs>
</svg>
